{
  "accessors": [
    {
      "bufferView": 0,
      "componentType": 5126,
      "count": 24,
      "type": "VEC3",
      "max": [
        0.304,
        0.381,
        0.0
      ],
      "min": [
        -0.304,
        -0.381,
        -0.304
      ]
    },
    {
      "bufferView": 1,
      "componentType": 5126,
      "count": 24,
      "type": "VEC3"
    },
    {
      "bufferView": 2,
      "componentType": 5123,
      "count": 36,
      "type": "SCALAR"
    },
    {
      "bufferView": 0,
      "byteOffset": 288,
      "componentType": 5126,
      "count": 24,
      "type": "VEC3",
      "max": [
        0.304,
        0.381,
        0.158
      ],
      "min": [
        -0.304,
        -0.381,
        -0.146
      ]
    },
    {
      "bufferView": 1,
      "byteOffset": 288,
      "componentType": 5126,
      "count": 24,
      "type": "VEC3"
    },
    {
      "bufferView": 2,
      "byteOffset": 72,
      "componentType": 5123,
      "count": 36,
      "type": "SCALAR"
    },
    {
      "bufferView": 0,
      "byteOffset": 576,
      "componentType": 5126,
      "count": 24,
      "type": "VEC3",
      "max": [
        0.304,
        0.381,
        -0.273
      ],
      "min": [
        -0.304,
        -0.381,
        -0.578
      ]
    },
    {
      "bufferView": 1,
      "byteOffset": 576,
      "componentType": 5126,
      "count": 24,
      "type": "VEC3"
    },
    {
      "bufferView": 2,
      "byteOffset": 144,
      "componentType": 5123,
      "count": 36,
      "type": "SCALAR"
    }
  ],
  "asset": {
    "generator": "glTF Exporter addin for Revit",
    "version": "2.0"
  },
  "buffers": [
    {
      "uri": "all_boxes.bin",
      "byteLength": 1944
    }
  ],
  "bufferViews": [
    {
      "buffer": 0,
      "byteLength": 864,
      "byteStride": 12,
      "target": 34962,
      "name": "0"
    },
    {
      "buffer": 0,
      "byteOffset": 864,
      "byteLength": 864,
      "byteStride": 12,
      "target": 34962,
      "name": "1"
    },
    {
      "buffer": 0,
      "byteOffset": 1728,
      "byteLength": 216,
      "target": 34963,
      "name": "3"
    }
  ],
  "meshes": [
    {
      "primitives": [
        {
          "attributes": {
            "POSITION": 0,
            "NORMAL": 1
          },
          "indices": 2
        }
      ]
    },
    {
      "primitives": [
        {
          "attributes": {
            "POSITION": 3,
            "NORMAL": 4
          },
          "indices": 5
        }
      ]
    },
    {
      "primitives": [
        {
          "attributes": {
            "POSITION": 6,
            "NORMAL": 7
          },
          "indices": 8
        }
      ]
    }
  ],
  "nodes": [
    {
      "children": [
        1
      ],
      "rotation": [
        0.707106769,
        0.0,
        0.0,
        -0.707106769
      ],
      "name": "all_boxes"
    },
    {
      "children": [
        2,
        5
      ],
      "name": "all_boxes OriginalDocument"
    },
    {
      "children": [
        3
      ],
      "name": "Storey 3"
    },
    {
      "children": [
        4
      ],
      "name": "Structural Columns 3"
    },
    {
      "matrix": [
        0.587785,
        -0.809017,
        0.0,
        0.0,
        0.809017,
        0.587785,
        0.0,
        0.0,
        0.0,
        0.0,
        1.0,
        0.0,
        -4.928,
        3.891,
        0.0,
        1.0
      ],
      "mesh": 2,
      "name": "283034"
    },
    {
      "children": [
        6
      ],
      "name": "Storey 4"
    },
    {
      "children": [
        7,
        8,
        9,
        10,
        11
      ],
      "name": "Structural Columns 4"
    },
    {
      "mesh": 0,
      "translation": [
        -6.315,
        3.824,
        0.0
      ],
      "name": "282390"
    },
    {
      "mesh": 0,
      "translation": [
        -5.699,
        3.824,
        0.0
      ],
      "name": "282409"
    },
    {
      "mesh": 0,
      "translation": [
        -6.182,
        5.587,
        0.0
      ],
      "name": "282444"
    },
    {
      "matrix": [
        0.587785,
        -0.809017,
        0.0,
        0.0,
        0.809017,
        0.587785,
        0.0,
        0.0,
        0.0,
        0.0,
        1.0,
        0.0,
        -6.454,
        3.031,
        0.0,
        1.0
      ],
      "mesh": 1,
      "name": "282948"
    },
    {
      "matrix": [
        0.587785,
        -0.809017,
        0.0,
        0.0,
        0.809017,
        0.587785,
        0.0,
        0.0,
        0.0,
        0.0,
        1.0,
        0.0,
        -5.972,
        6.237,
        0.0,
        1.0
      ],
      "mesh": 1,
      "name": "282977"
    }
  ],
  "scenes": [
    {
      "nodes": [
        0
      ],
      "name": "{3D}"
    }
  ]
}